<svg width="40" height="25" viewBox="0 0 40 25" fill="none" xmlns="http://www.w3.org/2000/svg">
<path fill-rule="evenodd" clip-rule="evenodd" d="M13.7646 0.524505C13.9308 0.690347 14.0627 0.887359 14.1527 1.10426C14.2427 1.32116 14.2891 1.55368 14.2891 1.78852C14.2891 2.02335 14.2427 2.25587 14.1527 2.47277C14.0627 2.68967 13.9308 2.88669 13.7646 3.05253L4.31304 12.5005L13.7646 21.9484C14.0998 22.2836 14.2881 22.7383 14.2881 23.2124C14.2881 23.6865 14.0998 24.1412 13.7646 24.4764C13.4293 24.8117 12.9746 25 12.5005 25C12.0264 25 11.5718 24.8117 11.2365 24.4764L0.524582 13.7645C0.358322 13.5986 0.226413 13.4016 0.136409 13.1847C0.0464062 12.9678 7.76446e-05 12.7353 7.76549e-05 12.5005C7.76651e-05 12.2656 0.0464062 12.0331 0.136409 11.8162C0.226413 11.5993 0.358322 11.4023 0.524582 11.2365L11.2365 0.524505C11.4024 0.358244 11.5994 0.226334 11.8163 0.13633C12.0332 0.0463269 12.2657 -8.84434e-08 12.5005 -7.81785e-08C12.7354 -6.79137e-08 12.9679 0.0463269 13.1848 0.13633C13.4017 0.226334 13.5987 0.358244 13.7646 0.524505Z" fill="#1F29A4"/>
<path fill-rule="evenodd" clip-rule="evenodd" d="M39.2803 12.5008C39.2803 12.9743 39.0922 13.4284 38.7574 13.7632C38.4225 14.098 37.9684 14.2861 37.4949 14.2861L5.35909 14.2861C4.88559 14.2861 4.43149 14.098 4.09667 13.7632C3.76186 13.4284 3.57376 12.9743 3.57376 12.5008C3.57376 12.0273 3.76186 11.5732 4.09667 11.2384C4.43149 10.9035 4.88559 10.7155 5.35909 10.7155L37.4949 10.7155C37.9684 10.7155 38.4225 10.9036 38.7574 11.2384C39.0922 11.5732 39.2803 12.0273 39.2803 12.5008V12.5008Z" fill="#1F29A4"/>
</svg>
