<svg width="28" height="28" fill="none" xmlns="http://www.w3.org/2000/svg"><path d="M5.1 22.4c.07 0 .14-.007.21-.017l5.887-1.033a.343.343 0 00.185-.098L26.218 6.416a.35.35 0 000-.494L20.401.102A.346.346 0 0020.153 0a.346.346 0 00-.248.102L5.067 14.938a.355.355 0 00-.098.185l-1.032 5.888a1.172 1.172 0 00.328 1.043c.231.224.522.346.833.346zm2.359-6.104L20.152 3.605l2.566 2.565-12.695 12.691-3.111.55.545-3.115zM26.88 25.34H1.12c-.62 0-1.12.5-1.12 1.12v1.26c0 .154.126.28.28.28h27.44a.28.28 0 00.28-.28v-1.26c0-.62-.5-1.12-1.12-1.12z" fill="#7485A9"/></svg>