<svg width="25" height="17" viewBox="0 0 25 17" fill="none" xmlns="http://www.w3.org/2000/svg">
<path d="M1.38889 2.77778C2.15595 2.77778 2.77778 2.15595 2.77778 1.38889C2.77778 0.621827 2.15595 0 1.38889 0C0.621827 0 0 0.621827 0 1.38889C0 2.15595 0.621827 2.77778 1.38889 2.77778Z" fill="white"/>
<path d="M1.38889 9.72211C2.15595 9.72211 2.77778 9.10029 2.77778 8.33322C2.77778 7.56616 2.15595 6.94434 1.38889 6.94434C0.621827 6.94434 0 7.56616 0 8.33322C0 9.10029 0.621827 9.72211 1.38889 9.72211Z" fill="white"/>
<path d="M1.38889 16.6667C2.15595 16.6667 2.77778 16.0449 2.77778 15.2778C2.77778 14.5107 2.15595 13.8889 1.38889 13.8889C0.621827 13.8889 0 14.5107 0 15.2778C0 16.0449 0.621827 16.6667 1.38889 16.6667Z" fill="white"/>
<path d="M23.6944 6.94434H6.8611C6.14006 6.94434 5.55554 7.52885 5.55554 8.24989V8.41656C5.55554 9.1376 6.14006 9.72211 6.8611 9.72211H23.6944C24.4155 9.72211 25 9.1376 25 8.41656V8.24989C25 7.52885 24.4155 6.94434 23.6944 6.94434Z" fill="white"/>
<path d="M23.6944 13.8889H6.8611C6.14006 13.8889 5.55554 14.4734 5.55554 15.1945V15.3611C5.55554 16.0822 6.14006 16.6667 6.8611 16.6667H23.6944C24.4155 16.6667 25 16.0822 25 15.3611V15.1945C25 14.4734 24.4155 13.8889 23.6944 13.8889Z" fill="white"/>
<path d="M23.6944 0H6.8611C6.14006 0 5.55554 0.584517 5.55554 1.30556V1.47222C5.55554 2.19326 6.14006 2.77778 6.8611 2.77778H23.6944C24.4155 2.77778 25 2.19326 25 1.47222V1.30556C25 0.584517 24.4155 0 23.6944 0Z" fill="white"/>
</svg>
