<svg width="25" height="17" fill="none" xmlns="http://www.w3.org/2000/svg"><path d="M1.389 2.778a1.389 1.389 0 100-2.778 1.389 1.389 0 000 2.778zM1.389 9.722a1.389 1.389 0 100-2.778 1.389 1.389 0 000 2.778zM1.389 16.667a1.389 1.389 0 100-2.778 1.389 1.389 0 000 2.778zM23.694 6.944H6.861c-.72 0-1.305.585-1.305 1.306v.167c0 .72.584 1.305 1.305 1.305h16.833c.722 0 1.306-.584 1.306-1.305V8.25c0-.721-.584-1.306-1.306-1.306zM23.694 13.889H6.861c-.72 0-1.305.584-1.305 1.306v.166c0 .721.584 1.306 1.305 1.306h16.833c.722 0 1.306-.585 1.306-1.306v-.167c0-.72-.584-1.305-1.306-1.305zM23.694 0H6.861c-.72 0-1.305.585-1.305 1.306v.166c0 .721.584 1.306 1.305 1.306h16.833c.722 0 1.306-.585 1.306-1.306v-.166C25 .585 24.416 0 23.694 0z" fill="#fff"/></svg>