<svg width="25" height="22" fill="none" xmlns="http://www.w3.org/2000/svg"><path d="M7.292 8.984v3.907c0 .647-.525 1.171-1.172 1.171H1.172A1.172 1.172 0 010 12.892V8.984c0-.647.525-1.171 1.172-1.171H6.12c.647 0 1.172.524 1.172 1.171zM0 16.797v3.906c0 .647.525 1.172 1.172 1.172H6.12c.647 0 1.172-.525 1.172-1.172v-3.906c0-.647-.525-1.172-1.172-1.172H1.172C.525 15.625 0 16.15 0 16.797zM6.12 0H1.172C.525 0 0 .525 0 1.172v3.906C0 5.725.525 6.25 1.172 6.25H6.12c.647 0 1.172-.525 1.172-1.172V1.172C7.292.525 6.767 0 6.12 0zm3.906 21.875h13.802c.647 0 1.172-.525 1.172-1.172v-3.906c0-.647-.525-1.172-1.172-1.172H10.026c-.647 0-1.172.525-1.172 1.172v3.906c0 .647.525 1.172 1.172 1.172zM8.854 1.172v3.906c0 .647.525 1.172 1.172 1.172h13.802c.647 0 1.172-.525 1.172-1.172V1.172C25 .525 24.475 0 23.828 0H10.026c-.647 0-1.172.525-1.172 1.172zm1.172 12.89h13.802c.647 0 1.172-.524 1.172-1.171V8.984c0-.647-.525-1.171-1.172-1.171H10.026c-.647 0-1.172.524-1.172 1.171v3.907c0 .647.525 1.171 1.172 1.171z" fill="#fff"/></svg>