<?xml version="1.0" encoding="utf-8"?>
<!-- Generator: Adobe Illustrator 16.0.0, SVG Export Plug-In . SVG Version: 6.00 Build 0)  -->
<!DOCTYPE svg PUBLIC "-//W3C//DTD SVG 1.1//EN" "http://www.w3.org/Graphics/SVG/1.1/DTD/svg11.dtd">
<svg version="1.1" id="Layer_1" xmlns="http://www.w3.org/2000/svg" xmlns:xlink="http://www.w3.org/1999/xlink" x="0px" y="0px"
	 width="156.314px" height="179.99px" viewBox="0 0 156.314 179.99" enable-background="new 0 0 156.314 179.99"
	 xml:space="preserve">
<g>
	<g>
		<g>
			<path fill="#1F29A4" d="M83.487,154.225c2.147,0,2.147-3.33,0-3.33S81.34,154.225,83.487,154.225L83.487,154.225z"/>
		</g>
	</g>
	<g>
		<ellipse fill="#669FF2" cx="98.907" cy="98.014" rx="4.132" ry="4.651"/>
		<polygon fill="#669FF2" points="87.094,43.41 120.52,38.085 120.178,31.568 32.094,33.42 32.094,141.411 87.094,141.411 		"/>
	</g>
	<g>
		<ellipse fill="#448CF2" cx="98.907" cy="98.014" rx="4.132" ry="4.651"/>
		<polygon fill="#448CF2" points="87.094,43.41 120.52,38.085 120.183,31.568 42.094,39.415 42.094,145.979 87.094,141.852 		"/>
	</g>
	<g>
		<path fill="#1B60F3" d="M87.094,153.478c0-0.008-0.094,0.934-0.094,0.934h0.094V50.348l33.585-12.287l-0.026-0.028
			c1.592-0.545,3.014-1.505,3.014-3.222c0-1.791-1.195-3.353-2.983-3.353c-0.219,0-0.376-0.047-0.376-0.047h0.031l-0.244,0.223
			c0,0,0,0.002,0,0.003l-65,11.549v106.563l25.543-2.271l-0.031,6.218c0,1.791,1.465,3.243,3.256,3.243
			c1.715,0,3.232-1.34,3.232-3.028V153.478z"/>
		<ellipse fill="#1B60F3" cx="98.907" cy="98.014" rx="4.132" ry="4.651"/>
	</g>
</g>
</svg>
