<svg xmlns="http://www.w3.org/2000/svg" viewBox="0 0 590.027 144">
  <g fill="#1B60F3">
    <path d="M187.16 70.969a19.378 19.378 0 005.035-4.899c2.094-2.931 3.156-6.622 3.156-10.969 0-6.227-2.238-11.091-6.656-14.792-4.34-3.635-10.49-5.309-18.279-5.309h-24.693c-1.745 0-3.479.462-4.672 1.703-1.181 1.226-2.023 2.551-2.023 4.272v63.511c0 1.734.85 3.37 2.043 4.559 1.189 1.196 2.917 1.954 4.652 1.954h25.32c9.596 0 16.785-2.101 21.367-5.944 4.66-3.908 7.023-9.44 7.023-16.292 0-4.83-1.488-8.94-4.424-12.143-2.154-2.349-4.786-4.268-7.849-5.651zm.066 17.38c0 3.364-1.188 5.938-3.63 7.747-2.548 1.887-7.088 2.904-13.494 2.904h-18.074V78h18.178c17.02 0 17.02 7.77 17.02 10.349zM152.027 66V47h17.656c4.326 0 7.742.667 10.154 2.421 2.295 1.67 3.412 3.729 3.412 6.523 0 3.329-1.055 5.641-3.229 7.451-2.219 1.852-6.297 2.605-12.116 2.605h-15.877zM244.421 56.936c-4.257-2.421-9.223-3.649-14.762-3.649-5.61 0-10.612 1.228-14.867 3.649-4.282 2.437-7.63 5.934-9.952 10.395-2.301 4.418-3.467 9.527-3.467 15.184 0 5.658 1.166 10.767 3.467 15.184 2.32 4.461 5.67 7.958 9.952 10.394 4.255 2.421 9.257 3.649 14.867 3.649 5.539 0 10.505-1.228 14.763-3.649 4.277-2.435 7.643-5.929 10-10.385 2.338-4.42 3.523-9.532 3.523-15.193 0-5.659-1.186-10.771-3.523-15.193-2.36-4.457-5.723-7.951-10.001-10.386zm-7.226 41.295a16.743 16.743 0 01-15.177 0c-2.343-1.186-4.3-3.103-5.817-5.697-1.531-2.614-2.307-6.021-2.307-10.124 0-4.033.775-7.404 2.307-10.019 1.515-2.587 3.467-4.484 5.803-5.638a17.16 17.16 0 017.655-1.781c2.612 0 5.154.599 7.55 1.78 2.338 1.155 4.311 3.056 5.863 5.649 1.561 2.614 2.352 5.981 2.352 10.008 0 4.098-.791 7.5-2.35 10.112-1.556 2.602-3.535 4.523-5.879 5.71zM304.035 56.936c-4.256-2.421-9.222-3.649-14.762-3.649-5.61 0-10.613 1.228-14.867 3.649-4.281 2.437-7.629 5.934-9.952 10.395-2.3 4.417-3.466 9.526-3.466 15.184 0 5.66 1.166 10.769 3.466 15.184 2.321 4.461 5.67 7.958 9.952 10.394 4.254 2.421 9.257 3.649 14.867 3.649 5.54 0 10.506-1.228 14.762-3.649 4.279-2.436 7.644-5.93 10.001-10.385 2.337-4.417 3.522-9.528 3.522-15.193 0-5.663-1.186-10.775-3.522-15.193-2.357-4.456-5.723-7.95-10.001-10.386zm-7.225 41.295a16.743 16.743 0 01-15.177 0c-2.341-1.185-4.299-3.102-5.818-5.697-1.529-2.612-2.305-6.018-2.305-10.124 0-4.035.775-7.406 2.304-10.019 1.518-2.588 3.471-4.486 5.804-5.639a17.161 17.161 0 017.656-1.781c2.613 0 5.154.599 7.55 1.78 2.339 1.155 4.312 3.056 5.863 5.649 1.56 2.614 2.351 5.981 2.351 10.008 0 4.098-.791 7.5-2.35 10.112-1.556 2.603-3.534 4.524-5.878 5.711zM349.694 77.375l14.1-12.634c1.472-1.472 2.217-3.026 2.217-4.618 0-1.602-.481-3.01-1.432-4.186-1.027-1.272-2.6-1.918-4.671-1.918-1.413 0-2.969.581-4.327 1.759l-22.554 20.691V37.104c0-1.73-.453-3.231-1.682-4.461-1.229-1.229-2.646-1.852-4.376-1.852-1.743 0-3.101.63-4.296 1.872-1.182 1.225-1.646 2.72-1.646 4.441v67.906c0 1.734.515 3.217 1.709 4.41s2.633 1.798 4.363 1.798c1.719 0 3.02-.598 4.249-1.779 1.241-1.196 1.679-2.686 1.679-4.429V92.177l7.549-6.701 17.12 23.176a6.808 6.808 0 002.335 1.886 6.238 6.238 0 002.785.681c1.777 0 3.292-.556 4.481-1.654 1.224-1.132 1.849-2.628 1.849-4.449 0-1.308-.454-2.565-1.349-3.729l-18.103-24.012z"/>
    <path d="M397.958 65.181c2.274 0 4.181.24 5.665.713 1.553.496 3.463 1.327 5.648 2.451.987.539 2.004.812 3.021.812 1.478 0 2.782-.603 3.878-1.793 1.061-1.154 1.599-2.463 1.599-3.892 0-2.038-.96-3.738-2.787-4.928a37.9 37.9 0 00-7.791-3.76c-2.832-.993-6.221-1.497-10.07-1.497-5.243 0-10.159 1.184-14.613 3.52-4.481 2.353-8.11 5.776-10.785 10.174-2.679 4.402-4.037 9.628-4.037 15.533 0 5.905 1.358 11.131 4.037 15.533 2.676 4.401 6.305 7.825 10.785 10.175 4.45 2.336 9.367 3.52 14.613 3.52 3.85 0 7.238-.504 10.071-1.497a37.898 37.898 0 007.801-3.768c1.816-1.179 2.776-2.881 2.776-4.92 0-1.426-.537-2.735-1.601-3.895-1.097-1.188-2.401-1.791-3.876-1.791-1.02 0-2.035.273-2.989.794-2.21 1.14-4.121 1.97-5.679 2.468-1.486.474-3.393.714-5.667.714-5.634 0-9.905-1.549-13.058-4.734-3.158-3.189-4.693-7.311-4.693-12.6s1.535-9.41 4.693-12.599c3.154-3.185 7.425-4.733 13.059-4.733zM428.23 30.792c-1.743 0-3.23.63-4.428 1.872-1.18 1.227-1.775 2.72-1.775 4.441v67.906c0 1.732.603 3.216 1.797 4.41 1.195 1.193 2.678 1.798 4.408 1.798 1.717 0 3.452-.598 4.68-1.778 1.243-1.195 2.115-2.686 2.115-4.43V37.104c0-1.8-.849-3.318-2.043-4.514-1.195-1.193-2.955-1.798-4.754-1.798zM486.054 53.81c-1.721 0-3.071.599-4.295 1.779-1.244 1.195-1.731 2.686-1.731 4.43v30.86c-3 2.744-4.776 4.963-7.265 6.601-2.491 1.641-5.458 2.473-8.633 2.473-6.828 0-10.103-3.58-10.103-11.265V60.019c0-1.729-.582-3.212-1.777-4.41-1.197-1.193-2.669-1.798-4.397-1.798-1.719 0-2.97.599-4.198 1.781-1.242 1.197-1.627 2.687-1.627 4.428v29.715c0 3.98.567 7.684 2.156 11.004 1.614 3.38 3.86 6.087 6.912 8.045 3.059 1.963 6.634 2.958 10.742 2.958 4.425 0 8.449-.946 11.736-2.812 2.206-1.253 4.453-2.817 6.453-4.668v.643c0 1.734.48 3.235 1.709 4.46 1.226 1.229 2.655 1.853 4.389 1.853 1.742 0 3.078-.629 4.277-1.873 1.179-1.229 1.625-2.722 1.625-4.44V60.019c0-1.728-.487-3.211-1.683-4.41-1.197-1.194-2.562-1.799-4.29-1.799zM551.72 66.966c-2.532-4.439-5.891-7.866-9.979-10.188a26.663 26.663 0 00-13.18-3.491c-6.102 0-11.534 2.017-16.534 6.002V37.104c0-1.8-.462-3.318-1.658-4.515-1.196-1.193-2.643-1.798-4.439-1.798-1.746 0-3.083.63-4.273 1.871-1.183 1.225-1.629 2.719-1.629 4.442v67.906c0 1.735.489 3.219 1.683 4.408 1.192 1.195 2.617 1.8 4.351 1.8 1.719 0 3.183-.598 4.41-1.779 1.073-1.032 1.675-2.284 1.823-3.729 4.798 4.005 10.301 6.031 16.419 6.031 4.566 0 8.95-1.175 13.032-3.491 4.091-2.322 7.446-5.75 9.977-10.188 2.526-4.429 3.807-9.66 3.807-15.549-.002-5.886-1.284-11.117-3.81-15.547zm-24.374-1.785c4.779 0 8.497 1.458 11.367 4.455 2.849 2.976 4.293 7.309 4.293 12.878 0 5.571-1.444 9.904-4.293 12.879-2.868 2.998-6.587 4.455-11.367 4.455-2.956 0-5.916-.667-8.517-1.983a26.02 26.02 0 01-6.802-4.955V72.119c2-2.032 4.319-3.698 6.802-4.955 2.602-1.316 5.563-1.983 8.517-1.983z"/>
  </g>
  <path fill="#1F29A4" d="M68.754 125.116c1.945 0 1.945-3.017 0-3.017-1.944 0-1.944 3.017 0 3.017z"/>
  <g fill="#669FF2">
    <path d="M86.469 74.192c0-2.328-1.68-4.214-3.744-4.214-2.068 0-3.744 1.886-3.744 4.214 0 2.327 1.676 4.213 3.744 4.213 2.064 0 3.744-1.886 3.744-4.213z"/>
    <path d="M72.027 24.725l30.28-4.825-.399-5.904-79.881 1.678V114h50z"/>
  </g>
  <g fill="#448CF2">
    <path d="M86.469 74.192c0-2.328-1.68-4.214-3.744-4.214-2.068 0-3.744 1.886-3.744 4.214 0 2.327 1.676 4.213 3.744 4.213 2.064 0 3.744-1.886 3.744-4.213z"/>
    <path d="M72.027 24.725l30.28-4.825-.422-5.904-70.858 7.109v96.541l41-3.739z"/>
  </g>
  <g fill="#1B60F3">
    <path d="M72.027 124.439c0-.007-.09.561-.09.561h.09V31.01l30.423-11.131-.026-.027c1.443-.493 2.732-1.363 2.732-2.918 0-1.623-1.085-2.465-2.704-2.465-.199 0-.354-.469-.354.531h.006l-.248-.471c-.004 0 .002-.235-.002-.234L43.027 24.521v96.541l23.145-2.058-.029 5.633c0 1.623 1.331 2.938 2.953 2.938 1.555 0 2.932-1.214 2.932-2.743v-.393z"/>
    <path d="M86.469 74.192c0-2.328-1.68-4.214-3.744-4.214-2.068 0-3.744 1.886-3.744 4.214 0 2.327 1.676 4.213 3.744 4.213 2.064 0 3.744-1.886 3.744-4.213z"/>
  </g>
</svg>