<?xml version="1.0" encoding="utf-8"?>
<!-- Generator: Adobe Illustrator 16.0.0, SVG Export Plug-In . SVG Version: 6.00 Build 0)  -->
<!DOCTYPE svg PUBLIC "-//W3C//DTD SVG 1.1//EN" "http://www.w3.org/Graphics/SVG/1.1/DTD/svg11.dtd">
<svg version="1.1" id="Layer_1" xmlns="http://www.w3.org/2000/svg" xmlns:xlink="http://www.w3.org/1999/xlink" x="0px" y="0px"
	 width="590.027px" height="144px" viewBox="0 0 590.027 144" enable-background="new 0 0 590.027 144" xml:space="preserve">
<g>
	<path fill="#1B60F3" d="M187.16,70.969c1.947-1.298,3.633-2.937,5.035-4.899c2.094-2.931,3.156-6.622,3.156-10.969
		c0-6.227-2.238-11.091-6.656-14.792c-4.34-3.635-10.49-5.309-18.279-5.309h-24.693c-1.745,0-3.479,0.462-4.672,1.703
		c-1.181,1.226-2.023,2.551-2.023,4.272v63.511c0,1.734,0.85,3.37,2.043,4.559c1.189,1.196,2.917,1.954,4.652,1.954h25.32
		c9.596,0,16.785-2.101,21.367-5.944c4.66-3.908,7.023-9.44,7.023-16.292c0-4.83-1.488-8.94-4.424-12.143
		C192.855,74.271,190.223,72.352,187.16,70.969z M187.226,88.349c0,3.364-1.188,5.938-3.63,7.747
		C181.048,97.983,176.508,99,170.102,99h-18.074V78h18.178C187.226,78,187.226,85.77,187.226,88.349z M152.027,66V47h17.656
		c4.326,0,7.742,0.667,10.154,2.421c2.295,1.67,3.412,3.729,3.412,6.523c0,3.329-1.055,5.641-3.229,7.451
		C177.801,65.247,173.723,66,167.904,66H152.027z"/>
	<path fill="#1B60F3" d="M244.421,56.936c-4.257-2.421-9.223-3.649-14.762-3.649c-5.61,0-10.612,1.228-14.867,3.649
		c-4.282,2.437-7.63,5.934-9.952,10.395c-2.301,4.418-3.467,9.527-3.467,15.184c0,5.658,1.166,10.767,3.467,15.184
		c2.32,4.461,5.67,7.958,9.952,10.394c4.255,2.421,9.257,3.649,14.867,3.649c5.539,0,10.505-1.228,14.763-3.649
		c4.277-2.435,7.643-5.929,10-10.385c2.338-4.42,3.523-9.532,3.523-15.193c0-5.659-1.186-10.771-3.523-15.193
		C252.062,62.865,248.699,59.371,244.421,56.936z M237.195,98.231c-4.846,2.456-10.455,2.393-15.177,0
		c-2.343-1.186-4.3-3.103-5.817-5.697c-1.531-2.614-2.307-6.021-2.307-10.124c0-4.033,0.775-7.404,2.307-10.019
		c1.515-2.587,3.467-4.484,5.803-5.638c2.396-1.182,4.973-1.781,7.655-1.781c2.612,0,5.154,0.599,7.55,1.78
		c2.338,1.155,4.311,3.056,5.863,5.649c1.561,2.614,2.352,5.981,2.352,10.008c0,4.098-0.791,7.5-2.35,10.112
		C241.518,95.123,239.539,97.044,237.195,98.231z"/>
	<path fill="#1B60F3" d="M304.035,56.936c-4.256-2.421-9.222-3.649-14.762-3.649c-5.61,0-10.613,1.228-14.867,3.649
		c-4.281,2.437-7.629,5.934-9.952,10.395c-2.3,4.417-3.466,9.526-3.466,15.184c0,5.66,1.166,10.769,3.466,15.184
		c2.321,4.461,5.67,7.958,9.952,10.394c4.254,2.421,9.257,3.649,14.867,3.649c5.54,0,10.506-1.228,14.762-3.649
		c4.279-2.436,7.644-5.93,10.001-10.385c2.337-4.417,3.522-9.528,3.522-15.193c0-5.663-1.186-10.775-3.522-15.193
		C311.679,62.866,308.313,59.372,304.035,56.936z M296.81,98.231c-4.846,2.456-10.455,2.393-15.177,0
		c-2.341-1.185-4.299-3.102-5.818-5.697c-1.529-2.612-2.305-6.018-2.305-10.124c0-4.035,0.775-7.406,2.304-10.019
		c1.518-2.588,3.471-4.486,5.804-5.639c2.396-1.182,4.973-1.781,7.656-1.781c2.613,0,5.154,0.599,7.55,1.78
		c2.339,1.155,4.312,3.056,5.863,5.649c1.56,2.614,2.351,5.981,2.351,10.008c0,4.098-0.791,7.5-2.35,10.112
		C301.132,95.123,299.154,97.044,296.81,98.231z"/>
	<path fill="#1B60F3" d="M349.694,77.375l14.1-12.634c1.472-1.472,2.217-3.026,2.217-4.618c0-1.602-0.481-3.01-1.432-4.186
		c-1.027-1.272-2.6-1.918-4.671-1.918c-1.413,0-2.969,0.581-4.327,1.759l-22.554,20.691V37.104c0-1.73-0.453-3.231-1.682-4.461
		c-1.229-1.229-2.646-1.852-4.376-1.852c-1.743,0-3.101,0.63-4.296,1.872c-1.182,1.225-1.646,2.72-1.646,4.441v67.906
		c0,1.734,0.515,3.217,1.709,4.41c1.194,1.193,2.633,1.798,4.363,1.798c1.719,0,3.02-0.598,4.249-1.779
		c1.241-1.196,1.679-2.686,1.679-4.429V92.177l7.549-6.701l17.12,23.176c0.628,0.806,1.442,1.44,2.335,1.886
		c0.904,0.452,1.856,0.681,2.785,0.681c1.777,0,3.292-0.556,4.481-1.654c1.224-1.132,1.849-2.628,1.849-4.449
		c0-1.308-0.454-2.565-1.349-3.729L349.694,77.375z"/>
	<path fill="#1B60F3" d="M397.958,65.181c2.274,0,4.181,0.24,5.665,0.713c1.553,0.496,3.463,1.327,5.648,2.451
		c0.987,0.539,2.004,0.812,3.021,0.812c1.478,0,2.782-0.603,3.878-1.793c1.061-1.154,1.599-2.463,1.599-3.892
		c0-2.038-0.96-3.738-2.787-4.928c-2.388-1.519-5.009-2.784-7.791-3.76c-2.832-0.993-6.221-1.497-10.07-1.497
		c-5.243,0-10.159,1.184-14.613,3.52c-4.481,2.353-8.11,5.776-10.785,10.174c-2.679,4.402-4.037,9.628-4.037,15.533
		c0,5.905,1.358,11.131,4.037,15.533c2.676,4.401,6.305,7.825,10.785,10.175c4.45,2.336,9.367,3.52,14.613,3.52
		c3.85,0,7.238-0.504,10.071-1.497c2.783-0.977,5.404-2.242,7.801-3.768c1.816-1.179,2.776-2.881,2.776-4.92
		c0-1.426-0.537-2.735-1.601-3.895c-1.097-1.188-2.401-1.791-3.876-1.791c-1.02,0-2.035,0.273-2.989,0.794
		c-2.21,1.14-4.121,1.97-5.679,2.468c-1.486,0.474-3.393,0.714-5.667,0.714c-5.634,0-9.905-1.549-13.058-4.734
		c-3.158-3.189-4.693-7.311-4.693-12.6s1.535-9.41,4.693-12.599C388.053,66.729,392.324,65.181,397.958,65.181z"/>
	<path fill="#1B60F3" d="M428.23,30.792c-1.743,0-3.23,0.63-4.428,1.872c-1.18,1.227-1.775,2.72-1.775,4.441v67.906
		c0,1.732,0.603,3.216,1.797,4.41c1.195,1.193,2.678,1.798,4.408,1.798c1.717,0,3.452-0.598,4.68-1.778
		c1.243-1.195,2.115-2.686,2.115-4.43V37.104c0-1.8-0.849-3.318-2.043-4.514C431.789,31.397,430.029,30.792,428.23,30.792z"/>
	<path fill="#1B60F3" d="M486.054,53.81c-1.721,0-3.071,0.599-4.295,1.779c-1.244,1.195-1.731,2.686-1.731,4.43v30.86
		c-3,2.744-4.776,4.963-7.265,6.601c-2.491,1.641-5.458,2.473-8.633,2.473c-6.828,0-10.103-3.58-10.103-11.265V60.019
		c0-1.729-0.582-3.212-1.777-4.41c-1.197-1.193-2.669-1.798-4.397-1.798c-1.719,0-2.97,0.599-4.198,1.781
		c-1.242,1.197-1.627,2.687-1.627,4.428v29.715c0,3.98,0.567,7.684,2.156,11.004c1.614,3.38,3.86,6.087,6.912,8.045
		c3.059,1.963,6.634,2.958,10.742,2.958c4.425,0,8.449-0.946,11.736-2.812c2.206-1.253,4.453-2.817,6.453-4.668v0.643
		c0,1.734,0.48,3.235,1.709,4.46c1.226,1.229,2.655,1.853,4.389,1.853c1.742,0,3.078-0.629,4.277-1.873
		c1.179-1.229,1.625-2.722,1.625-4.44V60.019c0-1.728-0.487-3.211-1.683-4.41C489.147,54.415,487.782,53.81,486.054,53.81z"/>
	<path fill="#1B60F3" d="M551.72,66.966c-2.532-4.439-5.891-7.866-9.979-10.188c-4.082-2.316-8.612-3.491-13.18-3.491
		c-6.102,0-11.534,2.017-16.534,6.002V37.104c0-1.8-0.462-3.318-1.658-4.515c-1.196-1.193-2.643-1.798-4.439-1.798
		c-1.746,0-3.083,0.63-4.273,1.871c-1.183,1.225-1.629,2.719-1.629,4.442v67.906c0,1.735,0.489,3.219,1.683,4.408
		c1.192,1.195,2.617,1.8,4.351,1.8c1.719,0,3.183-0.598,4.41-1.779c1.073-1.032,1.675-2.284,1.823-3.729
		c4.798,4.005,10.301,6.031,16.419,6.031c4.566,0,8.95-1.175,13.032-3.491c4.091-2.322,7.446-5.75,9.977-10.188
		c2.526-4.429,3.807-9.66,3.807-15.549C555.528,76.627,554.246,71.396,551.72,66.966z M527.346,65.181
		c4.779,0,8.497,1.458,11.367,4.455c2.849,2.976,4.293,7.309,4.293,12.878c0,5.571-1.444,9.904-4.293,12.879
		c-2.868,2.998-6.587,4.455-11.367,4.455c-2.956,0-5.916-0.667-8.517-1.983c-2.483-1.256-4.802-2.921-6.802-4.955V72.119
		c2-2.032,4.319-3.698,6.802-4.955C521.431,65.848,524.392,65.181,527.346,65.181z"/>
</g>
<g>
	<g>
		<g>
			<path fill="#1F29A4" d="M68.754,125.116c1.945,0,1.945-3.017,0-3.017C66.81,122.099,66.81,125.116,68.754,125.116L68.754,125.116
				z"/>
		</g>
	</g>
	<g>
		<path fill="#669FF2" d="M86.469,74.192c0-2.328-1.68-4.214-3.744-4.214c-2.068,0-3.744,1.886-3.744,4.214
			c0,2.327,1.676,4.213,3.744,4.213C84.789,78.405,86.469,76.519,86.469,74.192z"/>
		<polygon fill="#669FF2" points="72.027,24.725 102.307,19.9 101.908,13.996 22.027,15.674 22.027,114 72.027,114 		"/>
	</g>
	<g>
		<path fill="#448CF2" d="M86.469,74.192c0-2.328-1.68-4.214-3.744-4.214c-2.068,0-3.744,1.886-3.744,4.214
			c0,2.327,1.676,4.213,3.744,4.213C84.789,78.405,86.469,76.519,86.469,74.192z"/>
		<polygon fill="#448CF2" points="72.027,24.725 102.307,19.9 101.885,13.996 31.027,21.105 31.027,117.646 72.027,113.907 		"/>
	</g>
	<g>
		<path fill="#1B60F3" d="M72.027,124.439c0-0.007-0.09,0.561-0.09,0.561h0.09V31.01l30.423-11.131l-0.026-0.027
			c1.443-0.493,2.732-1.363,2.732-2.918c0-1.623-1.085-2.465-2.704-2.465c-0.199,0-0.354-0.469-0.354,0.531h0.006l-0.248-0.471
			c-0.004,0,0.002-0.235-0.002-0.234L43.027,24.521v96.541l23.145-2.058l-0.029,5.633c0,1.623,1.331,2.938,2.953,2.938
			c1.555,0,2.932-1.214,2.932-2.743V124.439z"/>
		<path fill="#1B60F3" d="M86.469,74.192c0-2.328-1.68-4.214-3.744-4.214c-2.068,0-3.744,1.886-3.744,4.214
			c0,2.327,1.676,4.213,3.744,4.213C84.789,78.405,86.469,76.519,86.469,74.192z"/>
	</g>
</g>
</svg>
