<svg width="35" height="35" viewBox="0 0 35 35" fill="none" xmlns="http://www.w3.org/2000/svg">
<path fill-rule="evenodd" clip-rule="evenodd" d="M17.5 0C18.0157 0 18.5103 0.204861 18.8749 0.569515C19.2396 0.934169 19.4444 1.42875 19.4444 1.94444V17.5C19.4444 18.0157 19.2396 18.5103 18.8749 18.8749C18.5103 19.2396 18.0157 19.4444 17.5 19.4444H1.94444C1.42875 19.4444 0.934169 19.2396 0.569515 18.8749C0.204861 18.5103 0 18.0157 0 17.5C0 16.9843 0.204861 16.4897 0.569515 16.1251C0.934169 15.7604 1.42875 15.5556 1.94444 15.5556H15.5556V1.94444C15.5556 1.42875 15.7604 0.934169 16.1251 0.569515C16.4897 0.204861 16.9843 0 17.5 0Z" fill="white"/>
<path fill-rule="evenodd" clip-rule="evenodd" d="M15.5557 17.5C15.5557 16.9843 15.7605 16.4897 16.1252 16.1251C16.4898 15.7604 16.9844 15.5555 17.5001 15.5555H33.0557C33.5714 15.5555 34.0659 15.7604 34.4306 16.1251C34.7952 16.4897 35.0001 16.9843 35.0001 17.5C35.0001 18.0157 34.7952 18.5103 34.4306 18.8749C34.0659 19.2396 33.5714 19.4444 33.0557 19.4444H19.4446V33.0555C19.4446 33.5712 19.2397 34.0658 18.875 34.4305C18.5104 34.7951 18.0158 35 17.5001 35C16.9844 35 16.4898 34.7951 16.1252 34.4305C15.7605 34.0658 15.5557 33.5712 15.5557 33.0555V17.5Z" fill="white"/>
</svg>
