<svg width="25" height="29" viewBox="0 0 25 29" fill="none" xmlns="http://www.w3.org/2000/svg">
<path fill-rule="evenodd" clip-rule="evenodd" d="M25 5.76923C25 6.27926 24.7974 6.7684 24.4367 7.12905C24.0761 7.4897 23.587 7.69231 23.0769 7.69231H22.1154V25C22.1154 26.0201 21.7102 26.9983 20.9889 27.7196C20.2676 28.4409 19.2893 28.8462 18.2692 28.8462H6.73077C5.71071 28.8462 4.73242 28.4409 4.01113 27.7196C3.28983 26.9983 2.88462 26.0201 2.88462 25V7.69231H1.92308C1.41305 7.69231 0.923903 7.4897 0.563256 7.12905C0.202609 6.7684 0 6.27926 0 5.76923V3.84615C0 3.33612 0.202609 2.84698 0.563256 2.48633C0.923903 2.12569 1.41305 1.92308 1.92308 1.92308H8.65385C8.65385 1.41305 8.85646 0.923903 9.2171 0.563256C9.57775 0.202609 10.0669 0 10.5769 0L14.4231 0C14.9331 0 15.4222 0.202609 15.7829 0.563256C16.1435 0.923903 16.3462 1.41305 16.3462 1.92308H23.0769C23.587 1.92308 24.0761 2.12569 24.4367 2.48633C24.7974 2.84698 25 3.33612 25 3.84615V5.76923ZM5.03462 7.69231L4.80769 7.80577V25C4.80769 25.51 5.0103 25.9992 5.37095 26.3598C5.7316 26.7205 6.22074 26.9231 6.73077 26.9231H18.2692C18.7793 26.9231 19.2684 26.7205 19.6291 26.3598C19.9897 25.9992 20.1923 25.51 20.1923 25V7.80577L19.9654 7.69231H5.03462ZM1.92308 5.76923V3.84615H23.0769V5.76923H1.92308Z" fill="#7485A9"/>
</svg>
