<svg viewBox="0 0 25 29" fill="none" xmlns="http://www.w3.org/2000/svg">
  <path d="M7.692 10.577a.962.962 0 01.962.961v11.539a.962.962 0 01-1.924 0V11.538a.962.962 0 01.962-.961zm4.808 0a.962.962 0 01.961.961v11.539a.962.962 0 11-1.923 0V11.538a.962.962 0 01.962-.961zm5.769.961a.962.962 0 00-1.923 0v11.539a.962.962 0 101.923 0V11.538z" fill="#7485A9"/><path fill-rule="evenodd" clip-rule="evenodd" d="M25 5.77a1.923 1.923 0 01-1.923 1.922h-.962V25a3.846 3.846 0 01-3.846 3.846H6.731A3.846 3.846 0 012.885 25V7.692h-.962A1.923 1.923 0 010 5.77V3.846a1.923 1.923 0 011.923-1.923h6.73A1.923 1.923 0 0110.578 0h3.846a1.923 1.923 0 011.923 1.923h6.73A1.923 1.923 0 0125 3.846V5.77zM5.035 7.691l-.227.114V25a1.923 1.923 0 001.923 1.923h11.538A1.923 1.923 0 0020.192 25V7.806l-.227-.114H5.035zM1.923 5.77V3.846h21.154V5.77H1.923z" fill="#7485A9"/>
</svg>
