<svg width="25" height="25" viewBox="0 0 25 25" fill="none" xmlns="http://www.w3.org/2000/svg">
<path d="M12.5 0C10.0277 0 7.61099 0.733112 5.55538 2.10663C3.49976 3.48015 1.89761 5.43238 0.951511 7.71646C0.00541604 10.0005 -0.242126 12.5139 0.24019 14.9386C0.722505 17.3634 1.91301 19.5907 3.66117 21.3388C5.40933 23.087 7.63661 24.2775 10.0614 24.7598C12.4861 25.2421 14.9995 24.9946 17.2835 24.0485C19.5676 23.1024 21.5199 21.5002 22.8934 19.4446C24.2669 17.389 25 14.9723 25 12.5C25 9.18479 23.683 6.00537 21.3388 3.66116C18.9946 1.31696 15.8152 0 12.5 0ZM12.5 4.46428C13.2947 4.46428 14.0715 4.69993 14.7322 5.14142C15.3929 5.5829 15.9079 6.21041 16.212 6.94457C16.5161 7.67874 16.5957 8.4866 16.4407 9.26599C16.2856 10.0454 15.903 10.7613 15.3411 11.3232C14.7791 11.8851 14.0632 12.2678 13.2838 12.4228C12.5045 12.5778 11.6966 12.4983 10.9624 12.1942C10.2283 11.8901 9.60077 11.3751 9.15928 10.7143C8.71779 10.0536 8.48215 9.2768 8.48215 8.48214C8.48097 7.95418 8.58409 7.43118 8.78559 6.94318C8.98709 6.45518 9.283 6.01179 9.65633 5.63846C10.0297 5.26514 10.473 4.96923 10.961 4.76773C11.449 4.56623 11.972 4.46311 12.5 4.46428ZM19.6429 20.4643C17.6848 22.2342 15.1394 23.2142 12.5 23.2142C9.86059 23.2142 7.31517 22.2342 5.35715 20.4643V19.9464C5.32333 18.7239 5.77323 17.5375 6.60911 16.6447C7.445 15.752 8.59935 15.2251 9.82143 15.1786H15.1786C16.3951 15.2274 17.544 15.7512 18.3787 16.6376C19.2133 17.524 19.6672 18.7024 19.6429 19.9196V20.4643Z" fill="white"/>
</svg>
