<svg width="28" height="28" viewBox="0 0 28 28" fill="none" xmlns="http://www.w3.org/2000/svg">
<path d="M14 0C11.2311 0 8.52431 0.821086 6.22202 2.35943C3.91973 3.89777 2.12532 6.08427 1.06569 8.64243C0.00606596 11.2006 -0.271181 14.0155 0.269012 16.7313C0.809205 19.447 2.14258 21.9416 4.10051 23.8995C6.05845 25.8574 8.55301 27.1908 11.2687 27.731C13.9845 28.2712 16.7994 27.9939 19.3576 26.9343C21.9157 25.8747 24.1022 24.0803 25.6406 21.778C27.1789 19.4757 28 16.7689 28 14C28 10.287 26.525 6.72601 23.8995 4.1005C21.274 1.475 17.713 0 14 0V0ZM8.00001 24.38V22.38C7.95609 21.5355 8.24611 20.7077 8.80743 20.0753C9.36875 19.4429 10.1563 19.0566 11 19H17C17.8455 19.0566 18.6347 19.4443 19.1962 20.0789C19.7578 20.7135 20.0466 21.5439 20 22.39V24.39C18.1785 25.4511 16.1081 26.0102 14 26.0102C11.8919 26.0102 9.82155 25.4511 8.00001 24.39V24.38ZM22 22.92V22.31C22.0273 20.9466 21.5189 19.6269 20.5841 18.6342C19.6493 17.6414 18.3625 17.0547 17 17H11C9.6366 17.0522 8.34831 17.6381 7.41296 18.6314C6.47761 19.6248 5.97015 20.9459 6.00001 22.31V22.9C4.18857 21.2798 2.91177 19.1478 2.33856 16.786C1.76535 14.4243 1.92275 11.9442 2.78994 9.67386C3.65712 7.40354 5.19321 5.45004 7.19495 4.07184C9.19668 2.69365 11.5697 1.95573 14 1.95573C16.4303 1.95573 18.8033 2.69365 20.8051 4.07184C22.8068 5.45004 24.3429 7.40354 25.2101 9.67386C26.0773 11.9442 26.2347 14.4243 25.6615 16.786C25.0882 19.1478 23.8114 21.2798 22 22.9V22.92Z" fill="white"/>
<path d="M14 5C13.0111 5 12.0444 5.29324 11.2222 5.84265C10.3999 6.39206 9.75904 7.17295 9.3806 8.08658C9.00217 9.00021 8.90315 10.0055 9.09608 10.9755C9.289 11.9454 9.76521 12.8363 10.4645 13.5355C11.1637 14.2348 12.0546 14.711 13.0246 14.9039C13.9945 15.0969 14.9998 14.9978 15.9134 14.6194C16.8271 14.241 17.6079 13.6001 18.1574 12.7779C18.7068 11.9556 19 10.9889 19 10C19 8.67392 18.4732 7.40215 17.5355 6.46447C16.5979 5.52678 15.3261 5 14 5V5ZM14 13C13.4067 13 12.8266 12.8241 12.3333 12.4944C11.8399 12.1648 11.4554 11.6962 11.2284 11.1481C11.0013 10.5999 10.9419 9.99667 11.0576 9.41473C11.1734 8.83279 11.4591 8.29824 11.8787 7.87868C12.2982 7.45912 12.8328 7.1734 13.4147 7.05764C13.9967 6.94189 14.5999 7.0013 15.1481 7.22836C15.6962 7.45542 16.1648 7.83994 16.4944 8.33329C16.8241 8.82664 17 9.40666 17 10C17 10.7956 16.6839 11.5587 16.1213 12.1213C15.5587 12.6839 14.7957 13 14 13Z" fill="white"/>
</svg>
